<?xml version="1.0" standalone="no"?>
<!DOCTYPE svg PUBLIC "-//W3C//DTD SVG 20010904//EN"
 "http://www.w3.org/TR/2001/REC-SVG-20010904/DTD/svg10.dtd">
<svg version="1.0" xmlns="http://www.w3.org/2000/svg"
 width="16.000000pt" height="16.000000pt" viewBox="0 0 16.000000 16.000000"
 preserveAspectRatio="xMidYMid meet">

<g transform="translate(0.000000,16.000000) scale(0.100000,-0.100000)"
fill="#000000" stroke="none">
<path d="M6 135 c-8 -21 -8 -89 0 -109 5 -12 20 -16 60 -16 51 0 54 1 54 25 0
21 -5 25 -30 25 -23 0 -30 4 -30 20 0 16 7 20 31 20 26 0 30 3 27 23 -3 19
-10 22 -54 25 -40 2 -53 -1 -58 -13z"/>
</g>
</svg>
