<svg width="24" height="24" viewBox="0 0 24 24" fill="none" xmlns="http://www.w3.org/2000/svg">
<path d="M21.6487 19.875C20.2209 17.4065 18.0206 15.6365 15.4528 14.7975C16.723 14.0414 17.7098 12.8892 18.2618 11.5179C18.8137 10.1467 18.9003 8.63211 18.5082 7.20688C18.1161 5.78165 17.2669 4.52454 16.0912 3.6286C14.9155 2.73266 13.4782 2.24744 12 2.24744C10.5218 2.24744 9.08449 2.73266 7.90877 3.6286C6.73305 4.52454 5.88393 5.78165 5.49181 7.20688C5.0997 8.63211 5.18627 10.1467 5.73823 11.5179C6.29019 12.8892 7.27703 14.0414 8.54718 14.7975C5.97937 15.6356 3.77906 17.4056 2.35124 19.875C2.29888 19.9604 2.26415 20.0554 2.2491 20.1544C2.23405 20.2534 2.23898 20.3544 2.26361 20.4515C2.28824 20.5486 2.33206 20.6397 2.39249 20.7196C2.45292 20.7995 2.52873 20.8664 2.61546 20.9165C2.70218 20.9666 2.79806 20.9988 2.89744 21.0113C2.99682 21.0237 3.09768 21.0161 3.19408 20.989C3.29047 20.9618 3.38045 20.9156 3.4587 20.8531C3.53695 20.7906 3.60189 20.713 3.64968 20.625C5.41593 17.5725 8.53781 15.75 12 15.75C15.4622 15.75 18.5841 17.5725 20.3503 20.625C20.3981 20.713 20.463 20.7906 20.5413 20.8531C20.6195 20.9156 20.7095 20.9618 20.8059 20.989C20.9023 21.0161 21.0032 21.0237 21.1025 21.0113C21.2019 20.9988 21.2978 20.9666 21.3845 20.9165C21.4713 20.8664 21.5471 20.7995 21.6075 20.7196C21.6679 20.6397 21.7118 20.5486 21.7364 20.4515C21.761 20.3544 21.7659 20.2534 21.7509 20.1544C21.7358 20.0554 21.7011 19.9604 21.6487 19.875ZM6.74999 8.99999C6.74999 7.96164 7.0579 6.9466 7.63478 6.08324C8.21166 5.21989 9.03159 4.54698 9.99091 4.14962C10.9502 3.75226 12.0058 3.64829 13.0242 3.85086C14.0426 4.05344 14.9781 4.55345 15.7123 5.28768C16.4465 6.0219 16.9465 6.95736 17.1491 7.97576C17.3517 8.99416 17.2477 10.0498 16.8504 11.0091C16.453 11.9684 15.7801 12.7883 14.9167 13.3652C14.0534 13.9421 13.0383 14.25 12 14.25C10.6081 14.2485 9.27357 13.6949 8.28933 12.7107C7.30509 11.7264 6.75148 10.3919 6.74999 8.99999Z" fill="#070707"/>
</svg>
