<?xml version="1.0" standalone="no"?>
<!DOCTYPE svg PUBLIC "-//W3C//DTD SVG 20010904//EN"
 "http://www.w3.org/TR/2001/REC-SVG-20010904/DTD/svg10.dtd">
<svg version="1.0" xmlns="http://www.w3.org/2000/svg"
 width="1069.000000pt" height="769.000000pt" viewBox="0 0 1069.000000 769.000000"
 preserveAspectRatio="xMidYMid meet">

<g transform="translate(0.000000,769.000000) scale(0.100000,-0.100000)"
fill="#000000" stroke="none">
<path d="M1106 7679 c-289 -38 -559 -176 -761 -390 -169 -181 -279 -400 -327
-657 -19 -98 -19 -5476 0 -5574 49 -258 158 -476 329 -658 181 -193 409 -318
683 -377 81 -17 212 -18 2720 -18 2826 0 2672 -3 2857 51 381 110 707 424 832
799 67 203 64 160 68 1042 l4 803 -26 0 -25 0 0 -752 c0 -597 -3 -774 -15
-853 -65 -463 -394 -848 -845 -990 -183 -57 -63 -55 -2845 -55 -2162 0 -2576
3 -2660 15 -463 65 -848 394 -990 845 -57 183 -55 55 -55 2935 0 2240 3 2666
15 2750 65 463 394 848 845 990 183 57 63 55 2845 55 2162 0 2576 -3 2660 -15
463 -65 848 -394 990 -845 53 -171 55 -204 55 -1237 l0 -953 25 0 26 0 -4
1003 c-4 1106 0 1035 -68 1242 -101 304 -341 576 -637 724 -72 36 -204 82
-312 107 -71 17 -215 18 -2695 20 -1483 1 -2650 -2 -2689 -7z"/>
<path d="M4450 4083 c1 -5 69 -192 153 -418 l153 -410 49 0 49 0 149 400 c82
220 152 408 154 418 5 16 0 18 -37 15 l-42 -3 -134 -364 c-73 -200 -135 -365
-137 -367 -2 -2 -64 162 -138 366 l-134 370 -42 0 c-24 0 -43 -3 -43 -7z"/>
<path d="M7400 3929 l0 -161 -31 32 c-62 61 -139 82 -230 60 -59 -14 -120 -63
-149 -120 -43 -83 -49 -224 -14 -339 48 -164 251 -215 390 -98 l31 27 7 -40
c6 -38 8 -40 41 -40 l35 0 0 420 0 420 -40 0 -40 0 0 -161z m-49 -186 l49 -52
0 -139 c0 -137 -1 -141 -26 -172 -39 -46 -98 -72 -164 -73 -113 -1 -168 66
-177 217 -9 132 29 230 101 262 20 9 56 13 99 11 69 -3 69 -3 118 -54z"/>
<path d="M9136 4078 c4 -7 61 -96 127 -198 66 -102 120 -189 120 -195 0 -5
-46 -82 -103 -170 -57 -88 -118 -184 -137 -212 l-34 -53 45 0 44 0 101 158
c55 86 109 170 119 185 l19 28 118 -185 119 -186 43 0 c24 0 43 3 43 6 0 3
-61 99 -135 213 -74 114 -135 211 -135 214 0 3 34 58 75 122 42 64 100 154
130 201 l55 84 -44 0 -43 0 -101 -157 c-55 -87 -107 -166 -114 -176 -12 -15
-24 1 -119 155 l-106 173 -48 3 c-36 2 -45 0 -39 -10z"/>
<path d="M5508 3858 c-47 -12 -113 -69 -138 -119 -50 -97 -49 -268 2 -368 28
-54 92 -106 151 -122 66 -18 167 -6 221 25 52 30 96 96 96 144 0 30 -3 32 -34
32 -31 0 -34 -3 -40 -38 -19 -120 -208 -153 -299 -53 -37 41 -57 93 -57 149
l0 32 215 0 215 0 0 58 c0 77 -22 148 -60 194 -53 65 -170 93 -272 66z m172
-73 c48 -25 88 -93 90 -152 l0 -23 -180 0 -180 0 0 28 c0 38 39 111 71 135 51
37 140 42 199 12z"/>
<path d="M6378 3856 c-48 -13 -62 -21 -110 -65 l-28 -25 0 31 c0 51 -9 63 -46
63 l-34 0 0 -305 0 -305 40 0 40 0 0 224 0 224 46 41 c72 63 177 81 234 41 42
-30 50 -82 50 -319 l0 -211 35 0 35 0 0 238 c0 209 -3 242 -19 277 -25 54 -57
82 -111 94 -56 13 -74 13 -132 -3z"/>
<path d="M7967 3854 c-106 -34 -168 -141 -168 -294 -1 -105 11 -153 54 -216
48 -72 108 -99 217 -99 99 1 145 20 202 83 48 53 71 127 71 227 0 140 -50 237
-147 287 -54 28 -163 33 -229 12z m205 -71 c42 -23 84 -105 94 -180 9 -71 -11
-182 -39 -225 -64 -94 -229 -103 -301 -17 -63 75 -70 284 -13 371 35 52 100
80 169 75 32 -3 73 -13 90 -24z"/>
<path d="M8878 3861 c-45 -9 -85 -34 -120 -75 l-27 -31 -1 53 0 52 -35 0 -35
0 0 -305 0 -305 40 0 40 0 0 223 0 223 33 32 c38 36 94 62 137 62 28 0 30 2
30 40 0 43 0 43 -62 31z"/>
</g>
</svg>
